<svg xmlns="http://www.w3.org/2000/svg" width="512" height="512" viewBox="0 0 512 512">
    <path d="m 0,0 h 129 v 18.78 c -2.56,1.21 -5.28,2.1 -8.08,2.5 C 109.88,20.7 98.94,19.19 87.95,18.01 87.54,17.1 87.13,16.19 86.72,15.29 79.45,14.18 72.13,11.5 66.88,6.19 66.75,4.57 66.41,2.98 65.86,1.45 59.49,5.48 55.01,12.19 47.52,14.4 41.93,17.3 35.87,14.82 30.74,12.23 20.77,9.74 10.11,8.99 0,11.09 V 0 z m 21.36,105.27 c 5.11,0.11 8.95,3.96 11.96,7.69 -0.01,-2.03 -0.03,-4.05 -0.05,-6.07 2.01,0.09 4.46,0.19 5.2,2.49 2.61,5.95 3.43,12.51 5.66,18.62 H 24.6 c 1.83,-8.25 -9.53,-15.31 -3.24,-22.73 z m 58.92,4.9 c 4.32,-5.17 11.31,-0.71 9.93,5.52 -0.32,1.67 -0.64,3.34 -1,5 -0.53,2.43 -1.09,4.86 -1.58,7.31 h -20.2 c 1.85,-5.29 1.68,-11.59 5.76,-15.87 0.93,0.02 2.8,0.05 3.73,0.06 0.11,0.38 0.34,1.12 0.45,1.49 0.29,0.99 0.58,1.98 0.86,2.97 2.15,-1.51 1.92,-4.15 2.05,-6.48 z" transform="scale(3.969 4)" fill="#99a8a5"/>
    <path d="m 47.52,14.4 c 7.49,-2.21 11.97,-8.92 18.34,-12.95 0.55,1.53 0.89,3.12 1.02,4.74 5.25,5.31 12.57,7.99 19.84,9.1 0.41,0.9 0.82,1.81 1.23,2.72 10.99,1.18 21.93,2.69 32.97,3.27 2.75,0.45 5.46,1.15 8.08,2.12 v 1.82 c -5.53,-2.26 -11.55,-2.87 -17.47,-2.83 -0.07,0.58 -0.2,1.75 -0.27,2.33 -0.6,8.81 -3.97,19.09 -12.93,22.56 3.43,3.88 8.59,4.73 13.46,5.11 2.54,10.31 -7.32,18.57 -16.11,21.56 -0.13,10.3 -6.76,18.62 -12.21,26.78 6.51,-0.49 13.19,3.05 13.83,10.08 -5.49,4.84 -0.59,11.58 0.75,17.19 h -4 c -0.97,-2.44 -1.66,-4.97 -2.36,-7.49 -0.62,0.05 -1.86,0.13 -2.48,0.18 0.36,-1.66 0.68,-3.33 1,-5 0.64,-3.49 1.64,-8.18 -1.06,-10.96 -4.36,-1.33 -9.59,-1.35 -13.61,1.07 1.12,2.46 2.9,5.06 1.83,7.88 -0.11,-0.37 -0.34,-1.11 -0.45,-1.49 -0.46,-2.01 -1.48,-3.78 -2.74,-5.38 -2.19,0.72 -4.4,1.36 -6.61,1.98 -0.23,3.4 -0.34,6.81 -0.58,10.21 -0.42,-1.22 -0.95,-2.39 -1.6,-3.51 -5.91,3.89 -13.4,4.55 -19.75,1.33 0.17,3.76 0.48,7.53 1.42,11.18 h -1.42 c -0.43,-5.46 -0.59,-11.17 -3.37,-16.04 0.81,-3.71 -0.39,-7.49 -2.64,-10.46 -3.35,-2.28 -8.07,-1.06 -10.11,2.4 0.76,1.1 1.54,2.2 2.31,3.3 -2.52,-1.48 -4.46,-3.71 -6.87,-5.32 -5.54,-1.7 -11.45,0.8 -15.43,4.67 -2.78,2.43 -1.28,8.31 2.97,7.46 -4.62,3.58 -6.65,9.13 -9.54,13.99 H 0 v -1.17 c 1.34,-3.25 2.91,-6.42 4.03,-9.76 1.54,-3.94 -1.01,-8.77 2.46,-12.06 4.35,-4.43 10.36,-7.67 16.74,-7.02 1.93,0.43 3.84,0.98 5.74,1.51 3.3,-4.81 8.74,-1.98 13.41,-2.12 -2.32,-3.85 -4.41,-7.84 -5.58,-12.2 -4.21,0.1 -9.14,-0.53 -11.22,-4.76 -2.3,-5.85 -2.46,-15.39 5.13,-17.21 0.7,-6.06 -1.28,-14 -8.02,-15.64 C 22.58,47.45 22.34,47.19 22.23,47.06 30.78,44.71 34.03,35.7 34.65,27.71 34.51,26.18 34.32,24.66 34.14,23.14 22.62,22.55 11.19,23.41 0,26.29 v -1.67 c 10.96,-2.98 22.2,-4.09 33.52,-3.44 -1.16,-2.91 -3.18,-5.67 -2.78,-8.95 5.13,2.59 11.19,5.07 16.78,2.17 m 38.75,6.06 c 4.53,4.55 13.15,3.31 19.27,2.21 -5.32,-3.3 -13.03,-2.48 -19.27,-2.21 M 45.5,54.45 c -4.57,7.5 -1.87,16.7 -4.51,24.69 -4.16,-1.96 -4.17,-6.99 -5.21,-10.83 -1.39,-2.09 -4.96,-3.72 -7,-1.57 -3.77,4.01 -3.23,11.84 1.82,14.58 2.77,1.4 6.25,-0.32 8.9,0.97 1.13,3.92 2.2,8.1 5.23,11.06 3.84,10.16 16.12,15.09 26.27,12.48 8.02,-2.54 12.76,-10.01 17.03,-16.74 4.62,-8.81 4.05,-19.41 2.73,-28.93 -0.29,-1.69 0.17,-3.69 -1.16,-5.04 0.02,-0.38 0.07,-1.14 0.09,-1.53 L 88.75,53.51 C 88.44,51.13 86.27,49.6 84.17,48.86 L 83.72,48.2 c -5.09,-0.7 -9.97,3.42 -10.56,8.42 -1.47,2.39 -1.81,5.18 -2.11,7.9 l -1.59,-0.53 c 0.85,-5.76 -1.21,-11.41 -4.75,-15.91 -3.04,0.12 -6.16,0.15 -8.98,1.46 -2.02,0.63 -3.51,2.21 -4.36,4.11 -0.58,-5.08 5.76,-6.6 9.63,-7.36 -6.33,-0.71 -12.69,2.34 -15.5,8.16 M 45,98.64 c -0.21,1.93 -1.17,3.57 -2.24,5.14 1.42,3.66 1.1,7.98 3.1,11.34 6.13,4.85 19.8,2.59 20.39,-6.16 C 58.06,108.01 50.6,104.72 45,98.64 z M 76.28,53.79 c 2.55,-3.35 7.24,-6.55 10.09,-1.61 l 0.02,0.24 0.17,0.18 c 0.64,1.06 1.17,2.16 1.62,3.31 0.55,1.43 0.99,2.89 1.33,4.38 -2.46,-3.33 -3.77,-7.46 -7.25,-9.98 -1.42,1.97 -3.69,2.98 -5.98,3.48 z m 4.59,7.89 c 6.15,-1.3 9.1,6.89 6.8,11.52 0.64,-4.46 -0.9,-11.51 -6.8,-10.52 -4.57,3.18 -5.48,9.94 -3.42,14.88 1.91,0.97 4,1.62 6.09,0.74 l 1.54,-0.37 c -1.83,2.49 -6.38,1.22 -5.34,5.71 -5.74,2.52 -12.16,2.25 -18.28,1.85 0.22,-1.58 0.46,-3.16 0.75,-4.72 0.45,0.99 0.91,1.98 1.36,2.97 4.71,0.03 9.56,0.1 14.09,-1.37 1.8,-1.38 1.51,-3.77 -0.92,-4.06 -2.07,-5.53 -1.78,-13.58 4.13,-16.63 z M 58.29,78.26 c -2.61,1.09 -3.11,-3.17 -0.56,-3.07 0.59,0.93 0.56,2.01 0.56,3.07 z m 20.5,-3.11 c 4.53,-1.02 -1.12,4.77 0,0 z M 55,102.57 c -4.08,-1.71 -5.27,-9.24 0.08,-9.87 6.3,-0.01 12.53,2.85 18.65,-0.26 -1.73,1.78 -9.5,5.89 -2.54,6.47 -5.45,0.91 -10.47,6.36 -16.19,3.66 m 9.74,-2.64 c -0.11,-1.74 -0.24,-3.49 -0.65,-5.18 -1.59,-0.3 -3.17,-0.62 -4.75,-0.95 0.55,1.34 1.12,2.69 1.63,4.06 -1.63,-2.19 -3.81,-3.84 -6.44,-4.65 -5.65,5.89 5.62,11.08 10.21,6.72 z" transform="scale(3.969 4)" fill="#010101"/>
    <path d="m 0,11.09 c 10.11,-2.1 20.77,-1.35 30.74,1.14 -0.4,3.28 1.62,6.04 2.78,8.95 C 22.2,20.53 10.96,21.64 0,24.62 V 11.09 z m 120.92,10.19 c 2.8,-0.4 5.52,-1.29 8.08,-2.5 v 4.62 c -2.62,-0.97 -5.33,-1.67 -8.08,-2.12 z" transform="scale(3.969 4)" fill="#678386"/>
    <path d="m 86.27,20.46 c 6.24,-0.27 13.95,-1.09 19.27,2.21 -6.12,1.1 -14.74,2.34 -19.27,-2.21 z m 25.26,1.93 c 5.92,-0.04 11.94,0.57 17.47,2.83 v 5.95 c -5.11,-3.82 -11.14,-7.05 -17.74,-6.45 0.07,-0.58 0.2,-1.75 0.27,-2.33 z M 0,26.29 c 11.19,-2.88 22.62,-3.74 34.14,-3.15 0.18,1.52 0.37,3.04 0.51,4.57 C 22.55,28.7 10.35,30.56 0,37.39 v -11.1 z m 22.69,21.28 c 6.74,1.64 8.72,9.58 8.02,15.64 -7.59,1.82 -7.43,11.36 -5.13,17.21 2.08,4.23 7.01,4.86 11.22,4.76 1.17,4.36 3.26,8.35 5.58,12.2 C 37.71,97.52 32.27,94.69 28.97,99.5 27.07,98.97 25.16,98.42 23.23,97.99 18.99,88.63 22.49,78.22 20.61,68.45 19.44,62.13 19.93,55.19 23.53,49.69 L 22.69,47.57 z M 0,103.97 c 2.19,0.16 4.37,0.45 6.49,1.04 -3.47,3.29 -0.92,8.12 -2.46,12.06 -1.12,3.34 -2.69,6.51 -4.03,9.76 v -22.86 z" transform="scale(3.969 4)" fill="#905042"/>
    <path d="m 111.26,24.72 c 6.6,-0.6 12.63,2.63 17.74,6.45 V 128 H 98.05 c -1.34,-5.61 -6.24,-12.35 -0.75,-17.19 -0.64,-7.03 -7.32,-10.57 -13.83,-10.08 5.45,-8.16 12.08,-16.48 12.21,-26.78 8.79,-2.99 18.65,-11.25 16.11,-21.56 -4.87,-0.38 -10.03,-1.23 -13.46,-5.11 8.96,-3.47 12.33,-13.75 12.93,-22.56 z M 0,37.39 c 10.35,-6.83 22.55,-8.69 34.65,-9.68 -0.62,7.99 -3.87,17 -12.42,19.35 0.11,0.13 0.35,0.39 0.46,0.51 l 0.84,2.12 c -3.6,5.5 -4.09,12.44 -2.92,18.76 1.88,9.77 -1.62,20.18 2.62,29.54 -6.38,-0.65 -12.39,2.59 -16.74,7.02 C 4.37,104.42 2.19,104.13 0,103.97 V 37.39 z" transform="scale(3.969 4)" fill="#b56e5c"/>
    <path d="m 45.5,54.45 c 2.81,-5.82 9.17,-8.87 15.5,-8.16 -3.87,0.76 -10.21,2.28 -9.63,7.36 -0.53,1.15 -1.87,1.46 -2.81,2.18 -2.68,7.01 -4.74,14.62 -3.08,22.1 -1.15,5.08 -1.05,10.25 -0.75,15.42 C 41.7,90.39 40.63,86.21 39.5,82.29 36.85,81 33.37,82.72 30.6,81.32 25.55,78.58 25.01,70.75 28.78,66.74 c 2.04,-2.15 5.61,-0.52 7,1.57 1.04,3.84 1.05,8.87 5.21,10.83 2.64,-7.99 -0.06,-17.19 4.51,-24.69 z m 10.23,-4.91 c 2.82,-1.31 5.94,-1.34 8.98,-1.46 3.54,4.5 5.6,10.15 4.75,15.91 C 68.72,56.83 64.01,48.71 55.73,49.54 z M 45,98.64 c 5.6,6.08 13.06,9.37 21.25,10.32 -0.59,8.75 -14.26,11.01 -20.39,6.16 -2,-3.36 -1.68,-7.68 -3.1,-11.34 1.07,-1.57 2.03,-3.21 2.24,-5.14 z" transform="scale(3.969 4)" fill="#a78b6e"/>
    <path d="m 73.16,56.62 c 0.59,-5 5.47,-9.12 10.56,-8.42 l 0.45,0.66 c 0.76,1.09 1.46,2.21 2.2,3.32 -2.85,-4.94 -7.54,-1.74 -10.09,1.61 -1.05,0.93 -2.09,1.88 -3.12,2.83 z m 13.21,-4.44 0.09,0.15 0.1,0.27 -0.17,-0.18 -0.02,-0.24 z M 29.52,103.9 c 2.04,-3.46 6.76,-4.68 10.11,-2.4 2.25,2.97 3.45,6.75 2.64,10.46 2.78,4.87 2.94,10.58 3.37,16.04 h -1.51 c -2.23,-6.11 -3.05,-12.67 -5.66,-18.62 -0.74,-2.3 -3.19,-2.4 -5.2,-2.49 0.02,2.02 0.04,4.04 0.05,6.07 -3.01,-3.73 -6.85,-7.58 -11.96,-7.69 -6.29,7.42 5.07,14.48 3.24,22.73 h -5.13 c -1.33,-4.89 -1.63,-11.75 -6.97,-13.99 -4.25,0.85 -5.75,-5.03 -2.97,-7.46 3.98,-3.87 9.89,-6.37 15.43,-4.67 2.41,1.61 4.35,3.84 6.87,5.32 -0.77,-1.1 -1.55,-2.2 -2.31,-3.3 z m 46.02,1.9 c 4.02,-2.42 9.25,-2.4 13.61,-1.07 2.7,2.78 1.7,7.47 1.06,10.96 1.38,-6.23 -5.61,-10.69 -9.93,-5.52 -0.13,2.33 0.1,4.97 -2.05,6.48 -0.28,-0.99 -0.57,-1.98 -0.86,-2.97 1.07,-2.82 -0.71,-5.42 -1.83,-7.88 z m -7.97,2.99 c 2.21,-0.62 4.42,-1.26 6.61,-1.98 1.26,1.6 2.28,3.37 2.74,5.38 -0.93,-0.01 -2.8,-0.04 -3.73,-0.06 -4.08,4.28 -3.91,10.58 -5.76,15.87 h -1.5 c 0.44,-2.99 0.94,-5.97 1.06,-9 0.24,-3.4 0.35,-6.81 0.58,-10.21 z" transform="scale(3.969 4)" fill="#827968"/>
    <path d="m 334.07008,195.44 c 8.33488,2.96 16.9476,9.08 18.17798,18.6 l 3.73086,0.32 c -0.0794,1.56 -0.27784,4.6 -0.3572,6.12 5.27876,5.4 3.45302,13.4 4.60403,20.16 5.23907,38.08 7.50139,80.48 -10.83535,115.72 -16.9476,26.92 -35.76062,56.8 -67.59194,66.96 -40.28527,10.44 -89.0245,-9.28 -104.26542,-49.92 -1.1907,-20.68 -1.5876,-41.36 2.97674,-61.68 -6.58853,-29.92 1.5876,-60.36 12.2245,-88.4 3.73085,-2.88 9.0493,-4.12 11.15286,-8.72 3.37365,-7.6 9.28744,-13.92 17.30481,-16.44 32.86325,-3.32 51.55721,29.16 54.49426,57.8 l 6.3107,2.12 c 1.1907,-10.88 2.54016,-22.04 8.37457,-31.6 4.08807,-3.8 8.21582,-7.6 12.38326,-11.32 9.08899,-2 18.0986,-6.04 23.73458,-13.92 13.81209,10.08 19.01147,26.6 28.77519,39.92 -1.34946,-5.96 -3.09581,-11.8 -5.27876,-17.52 -1.78605,-4.6 -3.88961,-9 -6.42977,-13.24 l -0.39692,-1.08 -0.3572,-0.6 c -2.93705,-4.44 -5.71535,-8.92 -8.73178,-13.28 m -135.5014,85.28 c 0.59535,10.64 -2.14325,22.2 3.21488,32 18.01923,26.4 62.19412,9.4 66.87752,-19.48 l -2.26232,2.68 c 1.90512,-5.48 2.65922,-11.36 2.14326,-17.12 1.23038,-15.24 -0.23812,-37.76 -19.13055,-40.76 -24.32992,-2.96 -44.92899,20.8 -50.84279,42.68 m 122.40372,-34 c -23.45674,12.2 -24.60775,44.4 -16.39194,66.52 9.64466,1.16 10.79566,10.72 3.65148,16.24 -17.97954,5.88 -37.22915,5.6 -55.9231,5.48 -1.78605,-3.96 -3.61178,-7.92 -5.39783,-11.88 -1.15101,6.24 -2.10357,12.56 -2.97675,18.88 24.29024,1.6 49.77117,2.68 72.55318,-7.4 -4.12775,-17.96 13.93116,-12.88 21.19442,-22.84 l -6.11225,1.48 c 7.54109,-4.84 15.83628,-10.4 16.39194,-20.4 9.12868,-18.52 -2.57985,-51.28 -26.98915,-46.08 M 218.29457,410.28 c 22.70264,10.8 42.62698,-11 64.25799,-14.64 -27.62419,-2.32 3.21488,-18.76 10.08124,-25.88 -24.29024,12.44 -49.01706,1 -74.02171,1.04 -21.23411,2.52 -16.51101,32.64 -0.31752,39.48 z" fill="#ebcfa8"/>
    <path d="m 50.03,70.18 c 1.49,-5.47 6.68,-11.41 12.81,-10.67 4.76,0.75 5.13,6.38 4.82,10.19 -0.82,-3.3 -1.12,-8.79 -5.55,-9 -5.87,-0.36 -8.89,5.58 -12.08,9.48 z m 0.81,8 c 5.4,4.43 12.88,1.03 16.28,-4.2 l 0.57,-0.67 C 66.51,80.53 55.38,84.78 50.84,78.18 z M 12.5,114.01 c 5.34,2.24 5.64,9.1 6.97,13.99 H 2.96 c 2.89,-4.86 4.92,-10.41 9.54,-13.99 z m 33.14,2.81 c 6.35,3.22 13.84,2.56 19.75,-1.33 0.65,1.12 1.18,2.29 1.6,3.51 -0.12,3.03 -0.62,6.01 -1.06,9 H 47.06 c -0.94,-3.65 -1.25,-7.42 -1.42,-11.18 z m 43.57,3.87 c 0.62,-0.05 1.86,-0.13 2.48,-0.18 0.7,2.52 1.39,5.05 2.36,7.49 h -6.42 c 0.49,-2.45 1.05,-4.88 1.58,-7.31 z" transform="scale(3.969 4)" fill="#2e2b23"/>
    <path d="m 50.03,70.18 c 3.19,-3.9 6.21,-9.84 12.08,-9.48 4.43,0.21 4.73,5.7 5.55,9 0.13,1.44 -0.06,2.91 -0.54,4.28 -3.4,5.23 -10.88,8.63 -16.28,4.2 -1.35,-2.45 -0.66,-5.34 -0.81,-8 m 8.26,8.08 c 0,-1.06 0.03,-2.14 -0.56,-3.07 -2.55,-0.1 -2.05,4.16 0.56,3.07 z m 19.16,-0.7 c -2.06,-4.94 -1.15,-11.7 3.42,-14.88 5.9,-0.99 7.44,6.06 6.8,10.52 -0.14,2.5 -2.23,3.89 -4.13,5.1 -2.09,0.88 -4.18,0.23 -6.09,-0.74 m 1.34,-2.41 c -1.12,4.77 4.53,-1.02 0,0 z" transform="scale(3.969 4)" fill="#fefffe"/>
    <path d="m 256.95256,399.72 c -18.21768,17.44 -62.94822,-3.32 -40.52341,-26.88 10.43845,3.24 19.09085,9.84 25.56031,18.6 -2.02419,-5.48 -4.28652,-10.88 -6.46946,-16.24 6.27101,1.32 12.54202,2.6 18.85271,3.8 1.62729,6.76 2.14326,13.76 2.57985,20.72 z" fill="#e97b75"/>
</svg>
